<?xml version="1.0" encoding="utf-8"?>
<!-- Generator: Adobe Illustrator 16.0.0, SVG Export Plug-In . SVG Version: 6.00 Build 0)  -->
<!DOCTYPE svg PUBLIC "-//W3C//DTD SVG 1.1//EN" "http://www.w3.org/Graphics/SVG/1.1/DTD/svg11.dtd">
<svg version="1.1" id="Layer_1" xmlns="http://www.w3.org/2000/svg" xmlns:xlink="http://www.w3.org/1999/xlink" x="0px" y="0px"
	 width="250px" height="70px" viewBox="0 0 250 70" enable-background="new 0 0 250 70" xml:space="preserve">
<g>
	<g>
		<g>
			<path fill="#C89F42" d="M108.466,62.503V50.255l-3.873,12.248h-2.781l-3.808-12.214v12.214h-3.641V39.332h3.641l5.198,15.324
				l5.264-15.324h3.641v23.171H108.466z"/>
			<path fill="#C89F42" d="M129.324,62.503c-5.265,0.497-12.745,1.489-12.745-5.595v-2.747c0-2.383,0.927-3.74,2.284-4.401
				c2.35-1.16,5.661-0.1,6.818,0.529c0-1.821-1.886-2.119-3.542-2.119l0.299-2.516c6.886,0,6.886,3.807,6.886,6.984V62.503z
				 M125.682,54.161c-1.225-0.861-5.428-2.383-5.428,0.463v1.821c0,2.15,1.424,3.541,5.428,2.847V54.161z"/>
			<path fill="#C89F42" d="M143.957,62.305c-2.351,0.629-4.932,0.762-6.953,0.132c-2.613-0.86-3.706-2.548-3.706-5.894v-4.236
				c0-6.454,5.462-8.01,10.593-5.626l-0.993,3.145c-3.939-1.556-5.959,0.033-5.959,2.284v4.799c0,3.179,4.866,2.317,6.026,1.82
				L143.957,62.305z"/>
			<path fill="#C89F42" d="M150.911,56.049c0.197,1.92,1.621,3.243,3.873,3.243c2.979,0,3.938-1.754,3.938-2.879
				c0-6.489-11.155-4.204-11.155-11.687c0-2.78,2.35-5.727,7.481-5.727c2.284,0,3.508,0.364,4.832,0.993
				c0,0.033-0.761,2.251-1.158,3.442c-1.225-0.396-2.218-0.728-3.642-0.728c-2.681,0-3.707,1.093-3.575,2.351
				c0.365,3.211,11.222,3.111,11.222,11.022c0,3.607-2.25,6.786-7.912,6.786c-5.129,0-7.712-3.31-7.812-6.258L150.911,56.049z"/>
			<path fill="#C89F42" d="M171.37,62.934c-3.94-0.066-5.032-2.219-5.032-4.801V39.332h3.709v6.587h3.144l-0.794,3.41h-2.35v8.804
				c0,1.623,1.092,1.888,2.415,1.888L171.37,62.934z"/>
			<path fill="#C89F42" d="M188.32,56.413c0,3.376-1.755,6.42-6.125,6.42c-4.336,0-6.223-3.044-6.223-6.42v-4.37
				c0-4.171,2.217-6.488,6.223-6.488c3.84,0,6.125,2.482,6.125,6.488V56.413z M184.711,52.043c0-2.682-1.557-2.814-2.516-2.814
				c-1.125,0-2.582,0.398-2.582,2.814v4.699c0,1.92,1.225,2.516,2.582,2.516c1.356,0,2.516-0.727,2.516-2.516V52.043z"/>
			<path fill="#C89F42" d="M192.526,62.503V45.919h3.376l0.265,0.132c2.317-0.794,3.873-0.363,5.627,0l-0.86,3.543
				c-2.219-1.126-4.767-0.066-4.767,2.251v10.658H192.526z"/>
			<path fill="#C89F42" d="M204.643,40.92c0-1.025,0.928-1.92,1.986-1.92c1.026,0,1.92,0.895,1.92,1.92
				c0,1.061-0.894,1.986-1.92,1.986C205.57,42.906,204.643,41.98,204.643,40.92z M204.709,62.503V45.919h3.642v16.584H204.709z"/>
			<path fill="#C89F42" d="M216.362,56.645v0.926c0,2.152,2.086,2.748,6.091,0.629l1.325,3.145
				c-1.557,0.961-3.575,1.523-5.462,1.557c-3.278,0.1-5.628-1.391-5.628-4.834v-6.784c0-3.642,2.482-5.661,6.09-5.661
				c3.675,0,5.828,2.086,5.828,5.562v5.031L216.362,56.645z M220.932,51.248c0-1.39-1.026-2.052-2.186-2.052
				c-1.854,0-2.384,1.29-2.384,2.118V53.3l4.569-0.297V51.248z"/>
			<path fill="#C89F42" d="M231.393,57.934c0,0.598,0.597,1.656,2.483,1.656c1.588,0,2.285-0.959,2.285-1.82
				c0-3.475-7.45-1.623-8.013-7.349c-0.197-2.085,1.292-4.899,5.661-4.899c2.352,0,3.708,0.96,3.708,0.96l-1.06,3.377
				c0,0-0.762-0.762-2.648-0.762c-2.052,0-1.82,0.993-1.722,1.39c0.43,1.922,7.912,1.391,7.912,7.349
				c0,2.582-1.82,5.165-6.124,5.165c-3.938,0-6.025-2.219-6.124-4.701L231.393,57.934z"/>
		</g>
		<g>
			<path fill="#C89F42" d="M106.381,29.887c-5.26,1.999-12.019,1.898-12.019-5.326V13.875c0-3.63,1.133-4.961,2.897-6.026
				c2.163-1.265,5.692-1.065,8.289,0.267l-1.031,3.329c-1.165-0.433-2.263-0.566-3.363-0.566c-1.863,0-3.129,1.132-3.129,2.697
				v10.919c0,4.162,5.16,2.664,7.79,1.931L106.381,29.887z"/>
			<path fill="#C89F42" d="M110.68,30.654V7.35h3.661v19.941h8.355v3.363H110.68z"/>
			<path fill="#C89F42" d="M136.714,7.316h3.663v17.145c0,4.895-3.696,6.427-6.991,6.427c-3.296,0-7.025-1.532-7.025-6.427V7.316
				h3.662v15.68c0,2.797,0.565,4.295,3.329,4.295c2.797,0,3.362-1.498,3.362-4.295V7.316z"/>
			<path fill="#C89F42" d="M146.206,30.654V7.35h6.791c3.463,0,6.427,1.931,6.427,5.893c0,1.299-0.201,3.263-2.199,4.627
				c-0.032,0.033-0.032,0.033-0.032,0.066v0.033c1.697,0.766,3.429,2.598,3.429,5.86c0,3.163-1.765,6.825-7.125,6.825H146.206z
				 M151.467,16.904c2.43,0,3.695-0.733,3.695-3.097c0-2.163-1.232-2.796-3.364-2.796h-1.931v5.893H151.467z M151.897,27.291
				c2.664,0,4.529-0.365,4.529-3.528c0-2.797-2.097-3.329-4.228-3.329h-2.332v6.857H151.897z"/>
		</g>
	</g>
	<path fill="#C89F42" d="M42,3C24.326,3,10,17.327,10,35c0,17.674,14.326,32,32,32s32-14.326,32-32C74,17.327,59.674,3,42,3z
		 M56.934,54.733c0,0.295-0.238,0.534-0.533,0.534c0,0-12.801-8.534-14.4-8.534s-14.4,8.534-14.4,8.534
		c-0.295,0-0.533-0.239-0.533-0.534V15.268c0-0.295,0.238-0.533,0.533-0.533H56.4c0.295,0,0.533,0.238,0.533,0.533V54.733z"/>
</g>
<g>
</g>
<g>
</g>
<g>
</g>
<g>
</g>
<g>
</g>
<g>
</g>
</svg>

